<?xml version="1.0" encoding="utf-8"?>
<!-- Generator: Adobe Illustrator 22.0.1, SVG Export Plug-In . SVG Version: 6.00 Build 0)  -->
<svg version="1.1" id="Слой_1" xmlns="http://www.w3.org/2000/svg" xmlns:xlink="http://www.w3.org/1999/xlink" x="0px" y="0px"
	 viewBox="0 0 36 36" style="enable-background:new 0 0 36 36;" xml:space="preserve">
<style type="text/css">
	.st0{fill:#202020;}
</style>
<path class="st0" d="M25.7,12c0-0.6-0.4-1-1-1h-9c-0.6,0-1,0.4-1,1s0.4,1,1,1h8v8c0,0.6,0.4,1,1,1s1-0.4,1-1V12z M12.7,25.4
	l12.7-12.7L24,11.3L11.3,24L12.7,25.4z"/>
<path class="st0" d="M18,36C8.1,36,0,27.9,0,18S8.1,0,18,0c9.9,0,18,8.1,18,18S27.9,36,18,36z M18,2C9.2,2,2,9.2,2,18
	c0,8.8,7.2,16,16,16s16-7.2,16-16C34,9.2,26.8,2,18,2z"/>
</svg>
